<mxfile host="app.diagrams.net" modified="2022-08-25T07:26:40.083Z" agent="5.0 (Macintosh; Intel Mac OS X 10_15_7) AppleWebKit/537.36 (KHTML, like Gecko) Chrome/104.0.0.0 Safari/537.36" etag="O4PJ-hSBF3vfz1Gl9aAZ" version="20.2.7" type="github">
  <diagram name="Page-1" id="197159a0-c6a4-9194-75a8-e4174976684c">
    <mxGraphModel dx="3227.5" dy="650" grid="1" gridSize="10" guides="1" tooltips="1" connect="1" arrows="1" fold="1" page="1" pageScale="1.5" pageWidth="1169" pageHeight="826" background="none" math="0" shadow="0">
      <root>
        <mxCell id="0" style=";html=1;" />
        <mxCell id="1" style=";html=1;" parent="0" />
        <mxCell id="1257a543d1cacc4b-52" value="IDM Architecture&amp;nbsp;" style="text;strokeColor=none;fillColor=none;html=1;fontSize=24;fontStyle=1;verticalAlign=middle;align=center;" parent="1" vertex="1">
          <mxGeometry x="-10" y="70" width="1420" height="40" as="geometry" />
        </mxCell>
        <mxCell id="XvVadz3LqThkuObWSdH_-20" value="IC-IDM-02.ic.bytedance.com &lt;br&gt;10.212.240.13" style="rounded=0;whiteSpace=wrap;html=1;strokeColor=none;fillColor=none;" vertex="1" parent="1">
          <mxGeometry x="600" y="330" width="440" height="22" as="geometry" />
        </mxCell>
        <mxCell id="XvVadz3LqThkuObWSdH_-21" value="IC-IDM-03.ic.bytedance.com &lt;br&gt;10.212.240.14" style="rounded=0;whiteSpace=wrap;html=1;strokeColor=none;fillColor=none;" vertex="1" parent="1">
          <mxGeometry x="862" y="330" width="440" height="22" as="geometry" />
        </mxCell>
        <mxCell id="XvVadz3LqThkuObWSdH_-12" value="&lt;b&gt;IDM Server&lt;/b&gt;" style="rounded=0;whiteSpace=wrap;html=1;strokeColor=none;fillColor=none;" vertex="1" parent="1">
          <mxGeometry x="846.4468965517242" y="285" width="227.58620689655174" height="22" as="geometry" />
        </mxCell>
        <mxCell id="XvVadz3LqThkuObWSdH_-9" value="DC (Linux) - ic.bytedance.com" style="whiteSpace=wrap;html=1;fontSize=14;verticalAlign=top;fillColor=#f5f5f5;strokeColor=#666666;fontColor=#333333;" vertex="1" parent="1">
          <mxGeometry x="710" y="120" width="490" height="410" as="geometry" />
        </mxCell>
        <mxCell id="XvVadz3LqThkuObWSdH_-15" value="IC-IDM-01.ic.bytedance.com - 10.212.240.12" style="rounded=0;whiteSpace=wrap;html=1;strokeColor=none;fillColor=none;" vertex="1" parent="1">
          <mxGeometry x="747.59" y="160" width="440" height="22" as="geometry" />
        </mxCell>
        <mxCell id="XvVadz3LqThkuObWSdH_-17" value="" style="shape=image;verticalLabelPosition=bottom;labelBackgroundColor=default;verticalAlign=top;aspect=fixed;imageAspect=0;image=data:image/png,iVBORw0KGgoAAAANSUhEUgAAAFYAAACGCAYAAABHaH3YAAAMPmlDQ1BJQ0MgUHJvZmlsZQAASImVVwdYU8kWnltSIbQAAlJCb4KIlABSQmihdwRRCUmAUEIMBBV7WVRw7aICNnRVRLHT7IidRbFhXyyoKOtiwa68SQFd95XvzffNnf/+c+Y/Z87MLQOA+gmuWJyLagCQJyqUxAb7M8YmpzBITwAZ6AIKIAITLq9AzIqODgewDLZ/L+9uAETWXnWQaf2z/78WTb6ggAcAEg1xOr+AlwfxQQDwKp5YUggAUcabTy4UyzCsQFsCA4R4oQxnKnCVDKcr8F65TXwsG+JWAMiqXK4kEwC1y5BnFPEyoYZaH8ROIr5QBIA6A2KfvLx8PsRpENtAGzHEMn1m+g86mX/TTB/S5HIzh7BiLvJCDhAWiHO5U//PdPzvkpcrHfRhBatqliQkVjZnmLebOflhMqwKca8oPTIKYi2IPwj5cnuIUWqWNCRBYY8a8grYMGdwpQHqxOcGhEFsCHGQKDcyXMmnZwiDOBDDHYJOERZy4iHWg3ihoCAwTmmzSZIfq/SF1mdI2Cwlf44rkfuV+bovzUlgKfVfZwk4Sn1MrTgrPgliKsQWRcLESIjVIHYsyIkLU9qMKc5iRw7aSKSxsvgtII4ViIL9FfpYUYYkKFZpX5pXMDhfbFOWkBOpxPsLs+JDFPnBWnlcefxwLthlgYiVMKgjKBgbPjgXviAgUDF37JlAlBCn1PkgLvSPVYzFqeLcaKU9bibIDZbxZhC7FBTFKcfiiYVwQyr08QxxYXS8Ik68OJsbGq2IB18GwgEbBAAGkMKaDvJBNhC29zb0wjtFTxDgAgnIBALgoGQGRyTJe0TwGgeKwZ8QCUDB0Dh/ea8AFEH+6xCruDqADHlvkXxEDngCcR4IA7nwXiofJRrylggeQ0b4D+9cWHkw3lxYZf3/nh9kvzMsyIQrGemgR4b6oCUxkBhADCEGEW1xA9wH98LD4dUPVmeciXsMzuO7PeEJoYPwkHCd0EW4NVE4V/JTlBGgC+oHKXOR/mMucCuo6Yr7495QHSrjurgBcMBdoB8W7gs9u0KWrYxblhXGT9p/m8EPq6G0ozhRUMowih/F5ueRanZqrkMqslz/mB9FrOlD+WYP9fzsn/1D9vmwDfvZEluIHcDOYiex89gRrAEwsONYI9aGHZXhod31WL67Br3FyuPJgTrCf/gbXFlZJgucap16nL4o+goFU2TvaMDOF0+VCDOzChks+EUQMDginuMIhrOTszMAsu+L4vX1Jkb+3UB0275z8/4AwPv4wMDA4e9c6HEA9rnDx7/pO2fDhJ8OFQDONfGkkiIFh8suBPiWUIdPmj4wBubABs7HGbgBL+AHAkEoiALxIBlMgNFnwX0uAZPBdDAHlIAysAysBhVgI9gCdoDdYD9oAEfASXAGXASXwXVwB+6ebvAC9IF34DOCICSEhtARfcQEsUTsEWeEifgggUg4EoskI2lIJiJCpMh0ZB5ShqxAKpDNSA2yD2lCTiLnkQ7kFvIA6UFeI59QDFVFtVEj1AodiTJRFhqGxqPj0Ux0ElqMzkeXoGvRanQXWo+eRC+i19Eu9AXajwFMBdPFTDEHjImxsSgsBcvAJNhMrBQrx6qxOqwZrvNVrAvrxT7iRJyOM3AHuIND8ASch0/CZ+KL8Qp8B16Pt+JX8Qd4H/6NQCMYEuwJngQOYSwhkzCZUEIoJ2wjHCKchs9SN+EdkUjUJVoT3eGzmEzMJk4jLiauJ+4hniB2EB8R+0kkkj7JnuRNiiJxSYWkEtI60i7ScdIVUjfpA1mFbEJ2JgeRU8gi8lxyOXkn+Rj5Cvkp+TNFg2JJ8aREUfiUqZSllK2UZsolSjflM1WTak31psZTs6lzqGupddTT1LvUNyoqKmYqHioxKkKV2SprVfaqnFN5oPJRVUvVTpWtmqoqVV2iul31hOot1Tc0Gs2K5kdLoRXSltBqaKdo92kf1OhqjmocNb7aLLVKtXq1K2ov1Snqluos9Qnqxerl6gfUL6n3alA0rDTYGlyNmRqVGk0anRr9mnTNUZpRmnmaizV3ap7XfKZF0rLSCtTia83X2qJ1SusRHaOb09l0Hn0efSv9NL1bm6htrc3RztYu096t3a7dp6Ol46KTqDNFp1LnqE6XLqZrpcvRzdVdqrtf94bup2FGw1jDBMMWDasbdmXYe73hen56Ar1SvT161/U+6TP0A/Vz9JfrN+jfM8AN7AxiDCYbbDA4bdA7XHu413De8NLh+4ffNkQN7QxjDacZbjFsM+w3MjYKNhIbrTM6ZdRrrGvsZ5xtvMr4mHGPCd3Ex0RossrkuMlzhg6DxchlrGW0MvpMDU1DTKWmm03bTT+bWZslmM0122N2z5xqzjTPMF9l3mLeZ2FiEWEx3aLW4rYlxZJpmWW5xvKs5Xsra6skqwVWDVbPrPWsOdbF1rXWd21oNr42k2yqba7ZEm2Ztjm2620v26F2rnZZdpV2l+xRezd7of16+44RhBEeI0Qjqkd0Oqg6sByKHGodHjjqOoY7znVscHw50mJkysjlI8+O/Obk6pTrtNXpziitUaGj5o5qHvXa2c6Z51zpfG00bXTQ6FmjG0e/crF3EbhscLnpSneNcF3g2uL61c3dTeJW59bjbuGe5l7l3snUZkYzFzPPeRA8/D1meRzx+Ojp5lnoud/zLy8HrxyvnV7PxliPEYzZOuaRt5k313uzd5cPwyfNZ5NPl6+pL9e32vehn7kf32+b31OWLSubtYv10t/JX+J/yP8925M9g30iAAsIDigNaA/UCkwIrAi8H2QWlBlUG9QX7Bo8LfhECCEkLGR5SCfHiMPj1HD6Qt1DZ4S2hqmGxYVVhD0MtwuXhDdHoBGhESsj7kZaRooiG6JAFCdqZdS9aOvoSdGHY4gx0TGVMU9iR8VOjz0bR4+bGLcz7l28f/zS+DsJNgnShJZE9cTUxJrE90kBSSuSusaOHDtj7MVkg2RhcmMKKSUxZVtK/7jAcavHdae6ppak3hhvPX7K+PMTDCbkTjg6UX0id+KBNEJaUtrOtC/cKG41tz+dk16V3sdj89bwXvD9+Kv4PQJvwQrB0wzvjBUZzzK9M1dm9mT5ZpVn9QrZwgrhq+yQ7I3Z73OicrbnDOQm5e7JI+el5TWJtEQ5otZ84/wp+R1ie3GJuGuS56TVk/okYZJtBUjB+ILGQm34I98mtZH+In1Q5FNUWfRhcuLkA1M0p4imtE21m7po6tPioOLfpuHTeNNapptOnzP9wQzWjM0zkZnpM1tmmc+aP6t7dvDsHXOoc3Lm/D7Xae6KuW/nJc1rnm80f/b8R78E/1JbolYiKelc4LVg40J8oXBh+6LRi9Yt+lbKL71Q5lRWXvZlMW/xhV9H/br214ElGUval7ot3bCMuEy07MZy3+U7VmiuKF7xaGXEyvpVjFWlq96unrj6fLlL+cY11DXSNV1rw9c2rrNYt2zdl4qsiuuV/pV7qgyrFlW9X89ff2WD34a6jUYbyzZ+2iTcdHNz8Ob6aqvq8i3ELUVbnmxN3Hr2N+ZvNdsMtpVt+7pdtL1rR+yO1hr3mpqdhjuX1qK10tqeXam7Lu8O2N1Y51C3eY/unrK9YK907/N9aftu7A/b33KAeaDuoOXBqkP0Q6X1SP3U+r6GrIauxuTGjqbQppZmr+ZDhx0Pbz9ieqTyqM7Rpceox+YfGzhefLz/hPhE78nMk49aJrbcOTX21LXWmNb202Gnz50JOnPqLOvs8XPe546c9zzfdIF5oeGi28X6Nte2Q7+7/n6o3a29/pL7pcbLHpebO8Z0HLvie+Xk1YCrZ65xrl28Hnm940bCjZudqZ1dN/k3n93KvfXqdtHtz3dm3yXcLb2nca/8vuH96j9s/9jT5dZ19EHAg7aHcQ/vPOI9evG44PGX7vlPaE/Kn5o8rXnm/OxIT1DP5efjnne/EL/43Fvyp+afVS9tXh78y++vtr6xfd2vJK8GXi9+o/9m+1uXty390f333+W9+/y+9IP+hx0fmR/Pfkr69PTz5C+kL2u/2n5t/hb27e5A3sCAmCvhyn8FMFjRjAwAXm8HgJYMAB2ez6jjFOc/eUEUZ1Y5Av8JK86I8uIGQB38f4/phX83nQDs3QqPX1BfPRWAaBoA8R4AHT16qA6e1eTnSlkhwnPApuiv6Xnp4N8UxZnzh7h/boFM1QX83P4L/oR8VPRdVLAAAAA4ZVhJZk1NACoAAAAIAAGHaQAEAAAAAQAAABoAAAAAAAKgAgAEAAAAAQAAAFagAwAEAAAAAQAAAIYAAAAAs6lThAAABT1JREFUeAHt3VlvG1UcBfAz3ncnxkmbphSaqKQBwSMPFQh44xvwCfkKPKIKhVIJCahUINAsRGmzOXEd7x5v/KfQSlVd5GlzGLs+U0Wp0tGJ55fjO8u9UZ2vfzgaQtuFCnxyI4/IN/fPLjRUYcDaUgohQXAEBMtxVWNJroIVLEuAlKsxVrAkAVKsGitYkgApVo0VLEmAFKvGCpYkQIpVYwVLEiDFqrGCJQmQYtVYwZIESLFqrGBJAqRYNVawJAFSrBorWJIAKVaNFSxJgBSrxgqWJECKVWMFSxIgxaqxgiUJkGLVWMGSBEixaqxgSQKkWDVWsCQBUqwaK1iSAClWjRUsSYAUq8YKliRAilVjBUsSIMWqsYIlCZBi1VjBkgRIsWqsYEkCpFg1VrAkAVKsGitYkgApVo0VLEmAFKvGCpYkQIpVYwVLEiDFqrEk2Agpd6piF7MxfLaWwc3LKcylomi0e/jjuIm7Ow1sl9qvdCwzD3trNYsv1nPoYxel1i726+eIhFJYLq7iq4Wr+OmvBL7drMLtDXwBzzTs6kISn69lUXHvoNzcQ6ffwmDYQ8gJo9YpoZi+jvUr66i309jYqvmCnekx9ssP59B1Np+gNrs19AcuhsOBfe6i3aujVN8GQnt4fzmJQjom2HEE4pEQrs0ncNbcMUSvjS++1V1rcL17gni0iiv56Dixz/aZ2cbOpyLWzDY6vaa9/V9E9YSG9sftNTB0qljI+Bs1Zxa20x8iHArDcZxnLRv1F8fGW2cYtfHX338XMbOwVbuk6nRDSMeLBjx6/PTQU9EcHMzj8Lw7yv2lX5tZ2L418Me9Ot5K3kQuXrArgecpHOPMGnoqeg0n1QiOqu5LEUf9g7+BY1TCFH/tzoMaLuWKWMx9hFhkG41OGT27Mgg7EWRiBeQTKyjXFvHLXgMtt+/rSGca9qzZxe3fq/h4ZRlz2TQKybKNuR27QIiiPyzisJzDvf02tl7h7mumYb0Kbp22cFBzsbaYxNXCO8glQmi6Q+yXXeycVlFu9Hw19enOMw/rQTQ7ffy8X7ePpyyv//n5Efv185Twr4BgSVUQrGBJAqRYNVawJAFSrBorWJIAKVaNJcEGeudVSEfwtj3FzybCpMO7mNimO8DDchsn9fEfHQYKu5SP49P35gw3fjECpJRje5Zwe7MyPbDJaAiLmSiWJxzWmztIxfyNmv72JjXiTYwNdCiotW2ZxFnLJvRGT+ZNCnip0UWlNUUPug9tuuO7P8/tbTbZJ69Od4CT2vgnLq8QgTa22urB+3gTN42xpJ+qYAVLEiDFBjrGRsMO4uGQLZj479UopGMfO7Y/GD5ZCdPtj3/1Eijs5VwMHyynUcyMXoky9pGTd6zYCfbXRw3s2ozuuFugsJcM9tZKHis29TzJ28PHHVTsWnZqYD1M783lb7lZMD+Cgc9XGWhjj85dbDyo4LeDRjBaY37Xii2ge2QLOPxsgcIe2J1XyR7FTfap6593lHcC87MFCjvwzrY+X7CfgwtyX90gkPQFK1iSAClWjSXBBnryyicitqI6OvHPY9v2PPbYrl4e203CuFugsEt5u/O6kbffoZrsW9pTQ/1+qzo9sBmb9n63kJiKW9r79qzAzxZoYxvefP15x9b9+3nJ//++3nqCus3P+dkChfV+xWfD5ryy8cme82raGHtYmaJbWu9k4OeE4KcxQe+ryy3ST0CwgiUJkGLVWMGSBEixaqxgSQKkWDVWsCQBUqwaK1iSAClWjRUsSYAUq8YKliRAilVjBUsSIMWqsYIlCZBi/waCH2lSb8gWmwAAAABJRU5ErkJggg==;" vertex="1" parent="1">
          <mxGeometry x="931.3582758620689" y="189" width="57.76" height="90" as="geometry" />
        </mxCell>
        <mxCell id="XvVadz3LqThkuObWSdH_-18" value="" style="shape=image;verticalLabelPosition=bottom;labelBackgroundColor=default;verticalAlign=top;aspect=fixed;imageAspect=0;image=data:image/png,iVBORw0KGgoAAAANSUhEUgAAAFYAAACGCAYAAABHaH3YAAAMPmlDQ1BJQ0MgUHJvZmlsZQAASImVVwdYU8kWnltSIbQAAlJCb4KIlABSQmihdwRRCUmAUEIMBBV7WVRw7aICNnRVRLHT7IidRbFhXyyoKOtiwa68SQFd95XvzffNnf/+c+Y/Z87MLQOA+gmuWJyLagCQJyqUxAb7M8YmpzBITwAZ6AIKIAITLq9AzIqODgewDLZ/L+9uAETWXnWQaf2z/78WTb6ggAcAEg1xOr+AlwfxQQDwKp5YUggAUcabTy4UyzCsQFsCA4R4oQxnKnCVDKcr8F65TXwsG+JWAMiqXK4kEwC1y5BnFPEyoYZaH8ROIr5QBIA6A2KfvLx8PsRpENtAGzHEMn1m+g86mX/TTB/S5HIzh7BiLvJCDhAWiHO5U//PdPzvkpcrHfRhBatqliQkVjZnmLebOflhMqwKca8oPTIKYi2IPwj5cnuIUWqWNCRBYY8a8grYMGdwpQHqxOcGhEFsCHGQKDcyXMmnZwiDOBDDHYJOERZy4iHWg3ihoCAwTmmzSZIfq/SF1mdI2Cwlf44rkfuV+bovzUlgKfVfZwk4Sn1MrTgrPgliKsQWRcLESIjVIHYsyIkLU9qMKc5iRw7aSKSxsvgtII4ViIL9FfpYUYYkKFZpX5pXMDhfbFOWkBOpxPsLs+JDFPnBWnlcefxwLthlgYiVMKgjKBgbPjgXviAgUDF37JlAlBCn1PkgLvSPVYzFqeLcaKU9bibIDZbxZhC7FBTFKcfiiYVwQyr08QxxYXS8Ik68OJsbGq2IB18GwgEbBAAGkMKaDvJBNhC29zb0wjtFTxDgAgnIBALgoGQGRyTJe0TwGgeKwZ8QCUDB0Dh/ea8AFEH+6xCruDqADHlvkXxEDngCcR4IA7nwXiofJRrylggeQ0b4D+9cWHkw3lxYZf3/nh9kvzMsyIQrGemgR4b6oCUxkBhADCEGEW1xA9wH98LD4dUPVmeciXsMzuO7PeEJoYPwkHCd0EW4NVE4V/JTlBGgC+oHKXOR/mMucCuo6Yr7495QHSrjurgBcMBdoB8W7gs9u0KWrYxblhXGT9p/m8EPq6G0ozhRUMowih/F5ueRanZqrkMqslz/mB9FrOlD+WYP9fzsn/1D9vmwDfvZEluIHcDOYiex89gRrAEwsONYI9aGHZXhod31WL67Br3FyuPJgTrCf/gbXFlZJgucap16nL4o+goFU2TvaMDOF0+VCDOzChks+EUQMDginuMIhrOTszMAsu+L4vX1Jkb+3UB0275z8/4AwPv4wMDA4e9c6HEA9rnDx7/pO2fDhJ8OFQDONfGkkiIFh8suBPiWUIdPmj4wBubABs7HGbgBL+AHAkEoiALxIBlMgNFnwX0uAZPBdDAHlIAysAysBhVgI9gCdoDdYD9oAEfASXAGXASXwXVwB+6ebvAC9IF34DOCICSEhtARfcQEsUTsEWeEifgggUg4EoskI2lIJiJCpMh0ZB5ShqxAKpDNSA2yD2lCTiLnkQ7kFvIA6UFeI59QDFVFtVEj1AodiTJRFhqGxqPj0Ux0ElqMzkeXoGvRanQXWo+eRC+i19Eu9AXajwFMBdPFTDEHjImxsSgsBcvAJNhMrBQrx6qxOqwZrvNVrAvrxT7iRJyOM3AHuIND8ASch0/CZ+KL8Qp8B16Pt+JX8Qd4H/6NQCMYEuwJngQOYSwhkzCZUEIoJ2wjHCKchs9SN+EdkUjUJVoT3eGzmEzMJk4jLiauJ+4hniB2EB8R+0kkkj7JnuRNiiJxSYWkEtI60i7ScdIVUjfpA1mFbEJ2JgeRU8gi8lxyOXkn+Rj5Cvkp+TNFg2JJ8aREUfiUqZSllK2UZsolSjflM1WTak31psZTs6lzqGupddTT1LvUNyoqKmYqHioxKkKV2SprVfaqnFN5oPJRVUvVTpWtmqoqVV2iul31hOot1Tc0Gs2K5kdLoRXSltBqaKdo92kf1OhqjmocNb7aLLVKtXq1K2ov1Snqluos9Qnqxerl6gfUL6n3alA0rDTYGlyNmRqVGk0anRr9mnTNUZpRmnmaizV3ap7XfKZF0rLSCtTia83X2qJ1SusRHaOb09l0Hn0efSv9NL1bm6htrc3RztYu096t3a7dp6Ol46KTqDNFp1LnqE6XLqZrpcvRzdVdqrtf94bup2FGw1jDBMMWDasbdmXYe73hen56Ar1SvT161/U+6TP0A/Vz9JfrN+jfM8AN7AxiDCYbbDA4bdA7XHu413De8NLh+4ffNkQN7QxjDacZbjFsM+w3MjYKNhIbrTM6ZdRrrGvsZ5xtvMr4mHGPCd3Ex0RossrkuMlzhg6DxchlrGW0MvpMDU1DTKWmm03bTT+bWZslmM0122N2z5xqzjTPMF9l3mLeZ2FiEWEx3aLW4rYlxZJpmWW5xvKs5Xsra6skqwVWDVbPrPWsOdbF1rXWd21oNr42k2yqba7ZEm2Ztjm2620v26F2rnZZdpV2l+xRezd7of16+44RhBEeI0Qjqkd0Oqg6sByKHGodHjjqOoY7znVscHw50mJkysjlI8+O/Obk6pTrtNXpziitUaGj5o5qHvXa2c6Z51zpfG00bXTQ6FmjG0e/crF3EbhscLnpSneNcF3g2uL61c3dTeJW59bjbuGe5l7l3snUZkYzFzPPeRA8/D1meRzx+Ojp5lnoud/zLy8HrxyvnV7PxliPEYzZOuaRt5k313uzd5cPwyfNZ5NPl6+pL9e32vehn7kf32+b31OWLSubtYv10t/JX+J/yP8925M9g30iAAsIDigNaA/UCkwIrAi8H2QWlBlUG9QX7Bo8LfhECCEkLGR5SCfHiMPj1HD6Qt1DZ4S2hqmGxYVVhD0MtwuXhDdHoBGhESsj7kZaRooiG6JAFCdqZdS9aOvoSdGHY4gx0TGVMU9iR8VOjz0bR4+bGLcz7l28f/zS+DsJNgnShJZE9cTUxJrE90kBSSuSusaOHDtj7MVkg2RhcmMKKSUxZVtK/7jAcavHdae6ppak3hhvPX7K+PMTDCbkTjg6UX0id+KBNEJaUtrOtC/cKG41tz+dk16V3sdj89bwXvD9+Kv4PQJvwQrB0wzvjBUZzzK9M1dm9mT5ZpVn9QrZwgrhq+yQ7I3Z73OicrbnDOQm5e7JI+el5TWJtEQ5otZ84/wp+R1ie3GJuGuS56TVk/okYZJtBUjB+ILGQm34I98mtZH+In1Q5FNUWfRhcuLkA1M0p4imtE21m7po6tPioOLfpuHTeNNapptOnzP9wQzWjM0zkZnpM1tmmc+aP6t7dvDsHXOoc3Lm/D7Xae6KuW/nJc1rnm80f/b8R78E/1JbolYiKelc4LVg40J8oXBh+6LRi9Yt+lbKL71Q5lRWXvZlMW/xhV9H/br214ElGUval7ot3bCMuEy07MZy3+U7VmiuKF7xaGXEyvpVjFWlq96unrj6fLlL+cY11DXSNV1rw9c2rrNYt2zdl4qsiuuV/pV7qgyrFlW9X89ff2WD34a6jUYbyzZ+2iTcdHNz8Ob6aqvq8i3ELUVbnmxN3Hr2N+ZvNdsMtpVt+7pdtL1rR+yO1hr3mpqdhjuX1qK10tqeXam7Lu8O2N1Y51C3eY/unrK9YK907/N9aftu7A/b33KAeaDuoOXBqkP0Q6X1SP3U+r6GrIauxuTGjqbQppZmr+ZDhx0Pbz9ieqTyqM7Rpceox+YfGzhefLz/hPhE78nMk49aJrbcOTX21LXWmNb202Gnz50JOnPqLOvs8XPe546c9zzfdIF5oeGi28X6Nte2Q7+7/n6o3a29/pL7pcbLHpebO8Z0HLvie+Xk1YCrZ65xrl28Hnm940bCjZudqZ1dN/k3n93KvfXqdtHtz3dm3yXcLb2nca/8vuH96j9s/9jT5dZ19EHAg7aHcQ/vPOI9evG44PGX7vlPaE/Kn5o8rXnm/OxIT1DP5efjnne/EL/43Fvyp+afVS9tXh78y++vtr6xfd2vJK8GXi9+o/9m+1uXty390f333+W9+/y+9IP+hx0fmR/Pfkr69PTz5C+kL2u/2n5t/hb27e5A3sCAmCvhyn8FMFjRjAwAXm8HgJYMAB2ez6jjFOc/eUEUZ1Y5Av8JK86I8uIGQB38f4/phX83nQDs3QqPX1BfPRWAaBoA8R4AHT16qA6e1eTnSlkhwnPApuiv6Xnp4N8UxZnzh7h/boFM1QX83P4L/oR8VPRdVLAAAAA4ZVhJZk1NACoAAAAIAAGHaQAEAAAAAQAAABoAAAAAAAKgAgAEAAAAAQAAAFagAwAEAAAAAQAAAIYAAAAAs6lThAAABT1JREFUeAHt3VlvG1UcBfAz3ncnxkmbphSaqKQBwSMPFQh44xvwCfkKPKIKhVIJCahUINAsRGmzOXEd7x5v/KfQSlVd5GlzGLs+U0Wp0tGJ55fjO8u9UZ2vfzgaQtuFCnxyI4/IN/fPLjRUYcDaUgohQXAEBMtxVWNJroIVLEuAlKsxVrAkAVKsGitYkgApVo0VLEmAFKvGCpYkQIpVYwVLEiDFqrGCJQmQYtVYwZIESLFqrGBJAqRYNVawJAFSrBorWJIAKVaNFSxJgBSrxgqWJECKVWMFSxIgxaqxgiUJkGLVWMGSBEixaqxgSQKkWDVWsCQBUqwaK1iSAClWjRUsSYAUq8YKliRAilVjBUsSIMWqsYIlCZBi1VjBkgRIsWqsYEkCpFg1VrAkAVKsGitYkgApVo0VLEmAFKvGCpYkQIpVYwVLEiDFqrEk2Agpd6piF7MxfLaWwc3LKcylomi0e/jjuIm7Ow1sl9qvdCwzD3trNYsv1nPoYxel1i726+eIhFJYLq7iq4Wr+OmvBL7drMLtDXwBzzTs6kISn69lUXHvoNzcQ6ffwmDYQ8gJo9YpoZi+jvUr66i309jYqvmCnekx9ssP59B1Np+gNrs19AcuhsOBfe6i3aujVN8GQnt4fzmJQjom2HEE4pEQrs0ncNbcMUSvjS++1V1rcL17gni0iiv56Dixz/aZ2cbOpyLWzDY6vaa9/V9E9YSG9sftNTB0qljI+Bs1Zxa20x8iHArDcZxnLRv1F8fGW2cYtfHX338XMbOwVbuk6nRDSMeLBjx6/PTQU9EcHMzj8Lw7yv2lX5tZ2L418Me9Ot5K3kQuXrArgecpHOPMGnoqeg0n1QiOqu5LEUf9g7+BY1TCFH/tzoMaLuWKWMx9hFhkG41OGT27Mgg7EWRiBeQTKyjXFvHLXgMtt+/rSGca9qzZxe3fq/h4ZRlz2TQKybKNuR27QIiiPyzisJzDvf02tl7h7mumYb0Kbp22cFBzsbaYxNXCO8glQmi6Q+yXXeycVlFu9Hw19enOMw/rQTQ7ffy8X7ePpyyv//n5Efv185Twr4BgSVUQrGBJAqRYNVawJAFSrBorWJIAKVaNJcEGeudVSEfwtj3FzybCpMO7mNimO8DDchsn9fEfHQYKu5SP49P35gw3fjECpJRje5Zwe7MyPbDJaAiLmSiWJxzWmztIxfyNmv72JjXiTYwNdCiotW2ZxFnLJvRGT+ZNCnip0UWlNUUPug9tuuO7P8/tbTbZJ69Od4CT2vgnLq8QgTa22urB+3gTN42xpJ+qYAVLEiDFBjrGRsMO4uGQLZj479UopGMfO7Y/GD5ZCdPtj3/1Eijs5VwMHyynUcyMXoky9pGTd6zYCfbXRw3s2ozuuFugsJcM9tZKHis29TzJ28PHHVTsWnZqYD1M783lb7lZMD+Cgc9XGWhjj85dbDyo4LeDRjBaY37Xii2ge2QLOPxsgcIe2J1XyR7FTfap6593lHcC87MFCjvwzrY+X7CfgwtyX90gkPQFK1iSAClWjSXBBnryyicitqI6OvHPY9v2PPbYrl4e203CuFugsEt5u/O6kbffoZrsW9pTQ/1+qzo9sBmb9n63kJiKW9r79qzAzxZoYxvefP15x9b9+3nJ//++3nqCus3P+dkChfV+xWfD5ryy8cme82raGHtYmaJbWu9k4OeE4KcxQe+ryy3ST0CwgiUJkGLVWMGSBEixaqxgSQKkWDVWsCQBUqwaK1iSAClWjRUsSYAUq8YKliRAilVjBUsSIMWqsYIlCZBi/waCH2lSb8gWmwAAAABJRU5ErkJggg==;" vertex="1" parent="1">
          <mxGeometry x="790" y="390" width="60" height="93.49" as="geometry" />
        </mxCell>
        <mxCell id="XvVadz3LqThkuObWSdH_-19" value="" style="shape=image;verticalLabelPosition=bottom;labelBackgroundColor=default;verticalAlign=top;aspect=fixed;imageAspect=0;image=data:image/png,iVBORw0KGgoAAAANSUhEUgAAAFYAAACGCAYAAABHaH3YAAAMPmlDQ1BJQ0MgUHJvZmlsZQAASImVVwdYU8kWnltSIbQAAlJCb4KIlABSQmihdwRRCUmAUEIMBBV7WVRw7aICNnRVRLHT7IidRbFhXyyoKOtiwa68SQFd95XvzffNnf/+c+Y/Z87MLQOA+gmuWJyLagCQJyqUxAb7M8YmpzBITwAZ6AIKIAITLq9AzIqODgewDLZ/L+9uAETWXnWQaf2z/78WTb6ggAcAEg1xOr+AlwfxQQDwKp5YUggAUcabTy4UyzCsQFsCA4R4oQxnKnCVDKcr8F65TXwsG+JWAMiqXK4kEwC1y5BnFPEyoYZaH8ROIr5QBIA6A2KfvLx8PsRpENtAGzHEMn1m+g86mX/TTB/S5HIzh7BiLvJCDhAWiHO5U//PdPzvkpcrHfRhBatqliQkVjZnmLebOflhMqwKca8oPTIKYi2IPwj5cnuIUWqWNCRBYY8a8grYMGdwpQHqxOcGhEFsCHGQKDcyXMmnZwiDOBDDHYJOERZy4iHWg3ihoCAwTmmzSZIfq/SF1mdI2Cwlf44rkfuV+bovzUlgKfVfZwk4Sn1MrTgrPgliKsQWRcLESIjVIHYsyIkLU9qMKc5iRw7aSKSxsvgtII4ViIL9FfpYUYYkKFZpX5pXMDhfbFOWkBOpxPsLs+JDFPnBWnlcefxwLthlgYiVMKgjKBgbPjgXviAgUDF37JlAlBCn1PkgLvSPVYzFqeLcaKU9bibIDZbxZhC7FBTFKcfiiYVwQyr08QxxYXS8Ik68OJsbGq2IB18GwgEbBAAGkMKaDvJBNhC29zb0wjtFTxDgAgnIBALgoGQGRyTJe0TwGgeKwZ8QCUDB0Dh/ea8AFEH+6xCruDqADHlvkXxEDngCcR4IA7nwXiofJRrylggeQ0b4D+9cWHkw3lxYZf3/nh9kvzMsyIQrGemgR4b6oCUxkBhADCEGEW1xA9wH98LD4dUPVmeciXsMzuO7PeEJoYPwkHCd0EW4NVE4V/JTlBGgC+oHKXOR/mMucCuo6Yr7495QHSrjurgBcMBdoB8W7gs9u0KWrYxblhXGT9p/m8EPq6G0ozhRUMowih/F5ueRanZqrkMqslz/mB9FrOlD+WYP9fzsn/1D9vmwDfvZEluIHcDOYiex89gRrAEwsONYI9aGHZXhod31WL67Br3FyuPJgTrCf/gbXFlZJgucap16nL4o+goFU2TvaMDOF0+VCDOzChks+EUQMDginuMIhrOTszMAsu+L4vX1Jkb+3UB0275z8/4AwPv4wMDA4e9c6HEA9rnDx7/pO2fDhJ8OFQDONfGkkiIFh8suBPiWUIdPmj4wBubABs7HGbgBL+AHAkEoiALxIBlMgNFnwX0uAZPBdDAHlIAysAysBhVgI9gCdoDdYD9oAEfASXAGXASXwXVwB+6ebvAC9IF34DOCICSEhtARfcQEsUTsEWeEifgggUg4EoskI2lIJiJCpMh0ZB5ShqxAKpDNSA2yD2lCTiLnkQ7kFvIA6UFeI59QDFVFtVEj1AodiTJRFhqGxqPj0Ux0ElqMzkeXoGvRanQXWo+eRC+i19Eu9AXajwFMBdPFTDEHjImxsSgsBcvAJNhMrBQrx6qxOqwZrvNVrAvrxT7iRJyOM3AHuIND8ASch0/CZ+KL8Qp8B16Pt+JX8Qd4H/6NQCMYEuwJngQOYSwhkzCZUEIoJ2wjHCKchs9SN+EdkUjUJVoT3eGzmEzMJk4jLiauJ+4hniB2EB8R+0kkkj7JnuRNiiJxSYWkEtI60i7ScdIVUjfpA1mFbEJ2JgeRU8gi8lxyOXkn+Rj5Cvkp+TNFg2JJ8aREUfiUqZSllK2UZsolSjflM1WTak31psZTs6lzqGupddTT1LvUNyoqKmYqHioxKkKV2SprVfaqnFN5oPJRVUvVTpWtmqoqVV2iul31hOot1Tc0Gs2K5kdLoRXSltBqaKdo92kf1OhqjmocNb7aLLVKtXq1K2ov1Snqluos9Qnqxerl6gfUL6n3alA0rDTYGlyNmRqVGk0anRr9mnTNUZpRmnmaizV3ap7XfKZF0rLSCtTia83X2qJ1SusRHaOb09l0Hn0efSv9NL1bm6htrc3RztYu096t3a7dp6Ol46KTqDNFp1LnqE6XLqZrpcvRzdVdqrtf94bup2FGw1jDBMMWDasbdmXYe73hen56Ar1SvT161/U+6TP0A/Vz9JfrN+jfM8AN7AxiDCYbbDA4bdA7XHu413De8NLh+4ffNkQN7QxjDacZbjFsM+w3MjYKNhIbrTM6ZdRrrGvsZ5xtvMr4mHGPCd3Ex0RossrkuMlzhg6DxchlrGW0MvpMDU1DTKWmm03bTT+bWZslmM0122N2z5xqzjTPMF9l3mLeZ2FiEWEx3aLW4rYlxZJpmWW5xvKs5Xsra6skqwVWDVbPrPWsOdbF1rXWd21oNr42k2yqba7ZEm2Ztjm2620v26F2rnZZdpV2l+xRezd7of16+44RhBEeI0Qjqkd0Oqg6sByKHGodHjjqOoY7znVscHw50mJkysjlI8+O/Obk6pTrtNXpziitUaGj5o5qHvXa2c6Z51zpfG00bXTQ6FmjG0e/crF3EbhscLnpSneNcF3g2uL61c3dTeJW59bjbuGe5l7l3snUZkYzFzPPeRA8/D1meRzx+Ojp5lnoud/zLy8HrxyvnV7PxliPEYzZOuaRt5k313uzd5cPwyfNZ5NPl6+pL9e32vehn7kf32+b31OWLSubtYv10t/JX+J/yP8925M9g30iAAsIDigNaA/UCkwIrAi8H2QWlBlUG9QX7Bo8LfhECCEkLGR5SCfHiMPj1HD6Qt1DZ4S2hqmGxYVVhD0MtwuXhDdHoBGhESsj7kZaRooiG6JAFCdqZdS9aOvoSdGHY4gx0TGVMU9iR8VOjz0bR4+bGLcz7l28f/zS+DsJNgnShJZE9cTUxJrE90kBSSuSusaOHDtj7MVkg2RhcmMKKSUxZVtK/7jAcavHdae6ppak3hhvPX7K+PMTDCbkTjg6UX0id+KBNEJaUtrOtC/cKG41tz+dk16V3sdj89bwXvD9+Kv4PQJvwQrB0wzvjBUZzzK9M1dm9mT5ZpVn9QrZwgrhq+yQ7I3Z73OicrbnDOQm5e7JI+el5TWJtEQ5otZ84/wp+R1ie3GJuGuS56TVk/okYZJtBUjB+ILGQm34I98mtZH+In1Q5FNUWfRhcuLkA1M0p4imtE21m7po6tPioOLfpuHTeNNapptOnzP9wQzWjM0zkZnpM1tmmc+aP6t7dvDsHXOoc3Lm/D7Xae6KuW/nJc1rnm80f/b8R78E/1JbolYiKelc4LVg40J8oXBh+6LRi9Yt+lbKL71Q5lRWXvZlMW/xhV9H/br214ElGUval7ot3bCMuEy07MZy3+U7VmiuKF7xaGXEyvpVjFWlq96unrj6fLlL+cY11DXSNV1rw9c2rrNYt2zdl4qsiuuV/pV7qgyrFlW9X89ff2WD34a6jUYbyzZ+2iTcdHNz8Ob6aqvq8i3ELUVbnmxN3Hr2N+ZvNdsMtpVt+7pdtL1rR+yO1hr3mpqdhjuX1qK10tqeXam7Lu8O2N1Y51C3eY/unrK9YK907/N9aftu7A/b33KAeaDuoOXBqkP0Q6X1SP3U+r6GrIauxuTGjqbQppZmr+ZDhx0Pbz9ieqTyqM7Rpceox+YfGzhefLz/hPhE78nMk49aJrbcOTX21LXWmNb202Gnz50JOnPqLOvs8XPe546c9zzfdIF5oeGi28X6Nte2Q7+7/n6o3a29/pL7pcbLHpebO8Z0HLvie+Xk1YCrZ65xrl28Hnm940bCjZudqZ1dN/k3n93KvfXqdtHtz3dm3yXcLb2nca/8vuH96j9s/9jT5dZ19EHAg7aHcQ/vPOI9evG44PGX7vlPaE/Kn5o8rXnm/OxIT1DP5efjnne/EL/43Fvyp+afVS9tXh78y++vtr6xfd2vJK8GXi9+o/9m+1uXty390f333+W9+/y+9IP+hx0fmR/Pfkr69PTz5C+kL2u/2n5t/hb27e5A3sCAmCvhyn8FMFjRjAwAXm8HgJYMAB2ez6jjFOc/eUEUZ1Y5Av8JK86I8uIGQB38f4/phX83nQDs3QqPX1BfPRWAaBoA8R4AHT16qA6e1eTnSlkhwnPApuiv6Xnp4N8UxZnzh7h/boFM1QX83P4L/oR8VPRdVLAAAAA4ZVhJZk1NACoAAAAIAAGHaQAEAAAAAQAAABoAAAAAAAKgAgAEAAAAAQAAAFagAwAEAAAAAQAAAIYAAAAAs6lThAAABT1JREFUeAHt3VlvG1UcBfAz3ncnxkmbphSaqKQBwSMPFQh44xvwCfkKPKIKhVIJCahUINAsRGmzOXEd7x5v/KfQSlVd5GlzGLs+U0Wp0tGJ55fjO8u9UZ2vfzgaQtuFCnxyI4/IN/fPLjRUYcDaUgohQXAEBMtxVWNJroIVLEuAlKsxVrAkAVKsGitYkgApVo0VLEmAFKvGCpYkQIpVYwVLEiDFqrGCJQmQYtVYwZIESLFqrGBJAqRYNVawJAFSrBorWJIAKVaNFSxJgBSrxgqWJECKVWMFSxIgxaqxgiUJkGLVWMGSBEixaqxgSQKkWDVWsCQBUqwaK1iSAClWjRUsSYAUq8YKliRAilVjBUsSIMWqsYIlCZBi1VjBkgRIsWqsYEkCpFg1VrAkAVKsGitYkgApVo0VLEmAFKvGCpYkQIpVYwVLEiDFqrEk2Agpd6piF7MxfLaWwc3LKcylomi0e/jjuIm7Ow1sl9qvdCwzD3trNYsv1nPoYxel1i726+eIhFJYLq7iq4Wr+OmvBL7drMLtDXwBzzTs6kISn69lUXHvoNzcQ6ffwmDYQ8gJo9YpoZi+jvUr66i309jYqvmCnekx9ssP59B1Np+gNrs19AcuhsOBfe6i3aujVN8GQnt4fzmJQjom2HEE4pEQrs0ncNbcMUSvjS++1V1rcL17gni0iiv56Dixz/aZ2cbOpyLWzDY6vaa9/V9E9YSG9sftNTB0qljI+Bs1Zxa20x8iHArDcZxnLRv1F8fGW2cYtfHX338XMbOwVbuk6nRDSMeLBjx6/PTQU9EcHMzj8Lw7yv2lX5tZ2L418Me9Ot5K3kQuXrArgecpHOPMGnoqeg0n1QiOqu5LEUf9g7+BY1TCFH/tzoMaLuWKWMx9hFhkG41OGT27Mgg7EWRiBeQTKyjXFvHLXgMtt+/rSGca9qzZxe3fq/h4ZRlz2TQKybKNuR27QIiiPyzisJzDvf02tl7h7mumYb0Kbp22cFBzsbaYxNXCO8glQmi6Q+yXXeycVlFu9Hw19enOMw/rQTQ7ffy8X7ePpyyv//n5Efv185Twr4BgSVUQrGBJAqRYNVawJAFSrBorWJIAKVaNJcEGeudVSEfwtj3FzybCpMO7mNimO8DDchsn9fEfHQYKu5SP49P35gw3fjECpJRje5Zwe7MyPbDJaAiLmSiWJxzWmztIxfyNmv72JjXiTYwNdCiotW2ZxFnLJvRGT+ZNCnip0UWlNUUPug9tuuO7P8/tbTbZJ69Od4CT2vgnLq8QgTa22urB+3gTN42xpJ+qYAVLEiDFBjrGRsMO4uGQLZj479UopGMfO7Y/GD5ZCdPtj3/1Eijs5VwMHyynUcyMXoky9pGTd6zYCfbXRw3s2ozuuFugsJcM9tZKHis29TzJ28PHHVTsWnZqYD1M783lb7lZMD+Cgc9XGWhjj85dbDyo4LeDRjBaY37Xii2ge2QLOPxsgcIe2J1XyR7FTfap6593lHcC87MFCjvwzrY+X7CfgwtyX90gkPQFK1iSAClWjSXBBnryyicitqI6OvHPY9v2PPbYrl4e203CuFugsEt5u/O6kbffoZrsW9pTQ/1+qzo9sBmb9n63kJiKW9r79qzAzxZoYxvefP15x9b9+3nJ//++3nqCus3P+dkChfV+xWfD5ryy8cme82raGHtYmaJbWu9k4OeE4KcxQe+ryy3ST0CwgiUJkGLVWMGSBEixaqxgSQKkWDVWsCQBUqwaK1iSAClWjRUsSYAUq8YKliRAilVjBUsSIMWqsYIlCZBi/waCH2lSb8gWmwAAAABJRU5ErkJggg==;" vertex="1" parent="1">
          <mxGeometry x="1074.03" y="390" width="60" height="93.49" as="geometry" />
        </mxCell>
        <mxCell id="XvVadz3LqThkuObWSdH_-24" value="&lt;b&gt;IDM Server&lt;/b&gt;" style="rounded=0;whiteSpace=wrap;html=1;strokeColor=none;fillColor=none;" vertex="1" parent="1">
          <mxGeometry x="706.2068965517242" y="492" width="227.58620689655174" height="22" as="geometry" />
        </mxCell>
        <mxCell id="XvVadz3LqThkuObWSdH_-25" value="&lt;b&gt;IDM Server&lt;/b&gt;" style="rounded=0;whiteSpace=wrap;html=1;strokeColor=none;fillColor=none;" vertex="1" parent="1">
          <mxGeometry x="992.2368965517243" y="489" width="227.58620689655174" height="22" as="geometry" />
        </mxCell>
        <mxCell id="XvVadz3LqThkuObWSdH_-28" value="" style="endArrow=classic;startArrow=classic;html=1;rounded=0;" edge="1" parent="1">
          <mxGeometry width="50" height="50" relative="1" as="geometry">
            <mxPoint x="834" y="316" as="sourcePoint" />
            <mxPoint x="904" y="246" as="targetPoint" />
          </mxGeometry>
        </mxCell>
        <mxCell id="XvVadz3LqThkuObWSdH_-27" value="" style="endArrow=classic;startArrow=classic;html=1;rounded=0;" edge="1" parent="1">
          <mxGeometry width="50" height="50" relative="1" as="geometry">
            <mxPoint x="845" y="326" as="sourcePoint" />
            <mxPoint x="915" y="256" as="targetPoint" />
          </mxGeometry>
        </mxCell>
        <mxCell id="XvVadz3LqThkuObWSdH_-30" value="Replica" style="rounded=0;whiteSpace=wrap;html=1;strokeColor=none;fillColor=none;rotation=-45;" vertex="1" parent="1">
          <mxGeometry x="743.9968965517241" y="261" width="227.58620689655174" height="22" as="geometry" />
        </mxCell>
        <mxCell id="XvVadz3LqThkuObWSdH_-31" value="" style="endArrow=classic;startArrow=classic;html=1;rounded=0;" edge="1" parent="1">
          <mxGeometry width="50" height="50" relative="1" as="geometry">
            <mxPoint x="1021" y="240" as="sourcePoint" />
            <mxPoint x="1091" y="320" as="targetPoint" />
          </mxGeometry>
        </mxCell>
        <mxCell id="XvVadz3LqThkuObWSdH_-32" value="" style="endArrow=classic;startArrow=classic;html=1;rounded=0;" edge="1" parent="1">
          <mxGeometry width="50" height="50" relative="1" as="geometry">
            <mxPoint x="1011" y="249" as="sourcePoint" />
            <mxPoint x="1081" y="329" as="targetPoint" />
          </mxGeometry>
        </mxCell>
        <mxCell id="XvVadz3LqThkuObWSdH_-33" value="&lt;meta charset=&quot;utf-8&quot;&gt;&lt;span style=&quot;color: rgb(0, 0, 0); font-family: Helvetica; font-size: 12px; font-style: normal; font-variant-ligatures: normal; font-variant-caps: normal; font-weight: 400; letter-spacing: normal; orphans: 2; text-align: center; text-indent: 0px; text-transform: none; widows: 2; word-spacing: 0px; -webkit-text-stroke-width: 0px; background-color: rgb(248, 249, 250); text-decoration-thickness: initial; text-decoration-style: initial; text-decoration-color: initial; float: none; display: inline !important;&quot;&gt;Replica&lt;/span&gt;" style="text;whiteSpace=wrap;html=1;rotation=45;" vertex="1" parent="1">
          <mxGeometry x="1037" y="269" width="80" height="30" as="geometry" />
        </mxCell>
        <mxCell id="XvVadz3LqThkuObWSdH_-34" value="IC-IDM-02.ic.bytedance.com&amp;nbsp;&lt;br&gt;&amp;nbsp;10.212.240.13" style="rounded=0;whiteSpace=wrap;html=1;strokeColor=none;fillColor=none;" vertex="1" parent="1">
          <mxGeometry x="600" y="360" width="440" height="22" as="geometry" />
        </mxCell>
        <mxCell id="XvVadz3LqThkuObWSdH_-35" value="" style="endArrow=classic;startArrow=classic;html=1;rounded=0;fontColor=#007FFF;" edge="1" parent="1">
          <mxGeometry width="50" height="50" relative="1" as="geometry">
            <mxPoint x="872.5899999999999" y="420" as="sourcePoint" />
            <mxPoint x="1062.59" y="420" as="targetPoint" />
          </mxGeometry>
        </mxCell>
        <mxCell id="XvVadz3LqThkuObWSdH_-37" value="IC-IDM-03.ic.bytedance.com&amp;nbsp;&lt;br&gt;&amp;nbsp;10.212.240.14" style="rounded=0;whiteSpace=wrap;html=1;strokeColor=none;fillColor=none;" vertex="1" parent="1">
          <mxGeometry x="884.0300000000001" y="360" width="440" height="22" as="geometry" />
        </mxCell>
        <mxCell id="XvVadz3LqThkuObWSdH_-38" value="Replica" style="rounded=0;whiteSpace=wrap;html=1;strokeColor=none;fillColor=none;" vertex="1" parent="1">
          <mxGeometry x="842.6268965517241" y="389" width="227.58620689655174" height="22" as="geometry" />
        </mxCell>
        <mxCell id="XvVadz3LqThkuObWSdH_-42" style="edgeStyle=orthogonalEdgeStyle;rounded=0;orthogonalLoop=1;jettySize=auto;html=1;fontColor=#007FFF;" edge="1" parent="1">
          <mxGeometry relative="1" as="geometry">
            <mxPoint x="520" y="239" as="sourcePoint" />
            <mxPoint x="710" y="239" as="targetPoint" />
            <Array as="points">
              <mxPoint x="530" y="239" />
              <mxPoint x="530" y="239" />
            </Array>
          </mxGeometry>
        </mxCell>
        <mxCell id="XvVadz3LqThkuObWSdH_-44" value="" style="endArrow=classic;html=1;rounded=0;fontColor=#007FFF;" edge="1" parent="1">
          <mxGeometry width="50" height="50" relative="1" as="geometry">
            <mxPoint x="520" y="400" as="sourcePoint" />
            <mxPoint x="710" y="400" as="targetPoint" />
          </mxGeometry>
        </mxCell>
        <mxCell id="XvVadz3LqThkuObWSdH_-50" value="" style="endArrow=classic;startArrow=classic;html=1;rounded=0;fontColor=#007FFF;" edge="1" parent="1">
          <mxGeometry width="50" height="50" relative="1" as="geometry">
            <mxPoint x="872.5899999999999" y="433" as="sourcePoint" />
            <mxPoint x="1062.59" y="433" as="targetPoint" />
          </mxGeometry>
        </mxCell>
        <mxCell id="XvVadz3LqThkuObWSdH_-53" value="&lt;b&gt;Linux Client&lt;/b&gt;" style="rounded=0;whiteSpace=wrap;html=1;strokeColor=none;fillColor=none;" vertex="1" parent="1">
          <mxGeometry x="699.8368965517242" y="691" width="227.58620689655174" height="22" as="geometry" />
        </mxCell>
        <mxCell id="XvVadz3LqThkuObWSdH_-7" value="" style="group" vertex="1" connectable="0" parent="1">
          <mxGeometry x="231" y="120" width="330" height="410" as="geometry" />
        </mxCell>
        <mxCell id="1257a543d1cacc4b-43" value="DC (Windows) - bytedance.com" style="whiteSpace=wrap;html=1;fillColor=#dae8fc;fontSize=14;strokeColor=none;verticalAlign=top;" parent="XvVadz3LqThkuObWSdH_-7" vertex="1">
          <mxGeometry x="11.379310344827587" width="318.62068965517244" height="410" as="geometry" />
        </mxCell>
        <mxCell id="XvVadz3LqThkuObWSdH_-1" value="" style="sketch=0;pointerEvents=1;shadow=0;dashed=0;html=1;strokeColor=none;fillColor=#505050;labelPosition=center;verticalLabelPosition=bottom;verticalAlign=top;outlineConnect=0;align=center;shape=mxgraph.office.servers.domain_controller;" vertex="1" parent="XvVadz3LqThkuObWSdH_-7">
          <mxGeometry x="119.48275862068967" y="91.11111111111111" width="91.0344827586207" height="91.11111111111111" as="geometry" />
        </mxCell>
        <mxCell id="XvVadz3LqThkuObWSdH_-2" value="" style="sketch=0;pointerEvents=1;shadow=0;dashed=0;html=1;strokeColor=none;fillColor=#505050;labelPosition=center;verticalLabelPosition=bottom;verticalAlign=top;outlineConnect=0;align=center;shape=mxgraph.office.servers.domain_controller;" vertex="1" parent="XvVadz3LqThkuObWSdH_-7">
          <mxGeometry x="120.17241379310346" y="273.33333333333337" width="91.0344827586207" height="91.11111111111111" as="geometry" />
        </mxCell>
        <mxCell id="XvVadz3LqThkuObWSdH_-3" value="&lt;b&gt;AD Domain Controller&lt;/b&gt;" style="rounded=0;whiteSpace=wrap;html=1;strokeColor=none;fillColor=none;" vertex="1" parent="XvVadz3LqThkuObWSdH_-7">
          <mxGeometry x="79.65517241379311" y="192.47222222222223" width="170.6896551724138" height="25.055555555555554" as="geometry" />
        </mxCell>
        <mxCell id="XvVadz3LqThkuObWSdH_-4" value="&lt;b&gt;AD Domain Controller&lt;/b&gt;" style="rounded=0;whiteSpace=wrap;html=1;strokeColor=none;fillColor=none;" vertex="1" parent="XvVadz3LqThkuObWSdH_-7">
          <mxGeometry x="79.65517241379311" y="375.8333333333333" width="170.6896551724138" height="25.055555555555554" as="geometry" />
        </mxCell>
        <mxCell id="XvVadz3LqThkuObWSdH_-5" value="IC-DC-02.bytedance.com - 10.212.240.62" style="rounded=0;whiteSpace=wrap;html=1;strokeColor=none;fillColor=none;" vertex="1" parent="XvVadz3LqThkuObWSdH_-7">
          <mxGeometry y="239.16666666666669" width="330" height="25.055555555555554" as="geometry" />
        </mxCell>
        <mxCell id="XvVadz3LqThkuObWSdH_-6" value="IC-DC-01.bytedance.com - 10.212.240.61" style="rounded=0;whiteSpace=wrap;html=1;strokeColor=none;fillColor=none;" vertex="1" parent="XvVadz3LqThkuObWSdH_-7">
          <mxGeometry y="56.94444444444445" width="330" height="25.055555555555554" as="geometry" />
        </mxCell>
      </root>
    </mxGraphModel>
  </diagram>
</mxfile>
